Coordinates
version=1
nRows=23
nColumns=30
inDegrees=yes

Units are S.I. units (second, meters, Newtons, ...)
Angles are in degrees.

endheader
time	floatyaw	floatroll	floatpitch	floatx	floaty	floatz	pro_sup_l	deviation_l	flexion_l	cmc_flexion_l	cmc_abduction_l	mp_flexion_l	ip_flexion_l	2mcp_flexion_l	2mcp_abduction_l	2pm_flexion_l	2md_flexion_l	3mcp_flexion_l	3mcp_abduction_l	3pm_flexion_l	3md_flexion_l	4mcp_flexion_l	4mcp_abduction_l	4pm_flexion_l	4md_flexion_l	5mcp_flexion_l	5mcp_abduction_l	5pm_flexion_l	5md_flexion_l
-1.495000	-160.147433	-5.066637	-73.570646	0.078926	-0.182371	-0.013228	100.343813	4.238204	-0.595183	15.148300	7.063389	-25.754285	-41.899288	31.584235	6.336171	42.264860	28.702655	25.164774	4.102963	43.997258	29.028778	13.609369	-4.207498	52.383506	36.182828	1.417996	-7.480892	62.385129	43.073640
-1.485000	-160.147433	-5.066637	-73.570646	0.078925	-0.182365	-0.013230	100.347768	4.239130	-0.588480	15.148665	7.082217	-25.765709	-41.921227	31.573583	6.341182	42.273188	28.707259	25.168180	4.101658	43.988852	29.022190	13.603289	-4.206359	52.377924	36.178874	1.412271	-7.492564	62.399773	43.086021
-1.475000	-160.147433	-5.066637	-73.570646	0.078924	-0.182358	-0.013232	100.349364	4.237688	-0.580989	15.145266	7.098399	-25.768168	-41.936534	31.565020	6.350647	42.269650	28.703690	25.167489	4.098620	43.994835	29.021425	13.602978	-4.205118	52.369766	36.173217	1.395943	-7.502219	62.420970	43.102736
-1.465000	-160.147433	-5.066637	-73.570646	0.078922	-0.182352	-0.013235	100.349055	4.234073	-0.574978	15.132739	7.115977	-25.764498	-41.939968	31.565890	6.362761	42.255099	28.693011	25.162337	4.095218	44.016311	29.028556	13.606993	-4.204367	52.366325	36.170297	1.374096	-7.508188	62.445249	43.122542
-1.455000	-160.147433	-5.066637	-73.570646	0.078917	-0.182348	-0.013239	100.346965	4.228609	-0.572388	15.108280	7.139409	-25.759103	-41.929851	31.579322	6.375210	42.234539	28.679258	25.152728	4.093241	44.051102	29.044146	13.612224	-4.204724	52.373775	36.173982	1.352541	-7.509985	62.467943	43.143534
-1.445000	-160.147433	-5.066637	-73.570646	0.078909	-0.182347	-0.013244	100.342845	4.221720	-0.573793	15.072087	7.171113	-25.755923	-41.908547	31.603369	6.385755	42.214737	28.667337	25.139014	4.094002	44.094344	29.066914	13.615031	-4.206464	52.394261	36.185666	1.335623	-7.508048	62.484405	43.163070
-1.435000	-160.147433	-5.066637	-73.570646	0.078899	-0.182349	-0.013250	100.337005	4.214416	-0.577902	15.026498	7.210237	-25.756485	-41.880825	31.632427	6.392650	42.201518	28.660767	25.121841	4.097598	44.139695	29.093865	13.612734	-4.209370	52.424796	36.203414	1.325176	-7.503320	62.491172	43.177957
-1.425000	-160.147433	-5.066637	-73.570646	0.078890	-0.182351	-0.013255	100.331455	4.208838	-0.581893	14.974675	7.253510	-25.759004	-41.851030	31.659598	6.394942	42.198150	28.660631	25.102105	4.102797	44.180857	29.121033	13.604601	-4.212818	52.458509	36.222696	1.320942	-7.497073	62.486741	43.185140
-1.415000	-160.147433	-5.066637	-73.570646	0.078885	-0.182350	-0.013257	100.329856	4.208030	-0.582500	14.919640	7.297534	-25.759354	-41.820823	31.678686	6.392682	42.205439	28.666321	25.080905	4.107670	44.213116	29.144752	13.591849	-4.215970	52.487523	36.238370	1.321786	-7.490876	62.471754	43.182780
-1.405000	-160.147433	-5.066637	-73.570646	0.078883	-0.182342	-0.013255	100.335791	4.214602	-0.577347	14.863932	7.340648	-25.753684	-41.788960	31.685299	6.386949	42.222883	28.677287	25.059439	4.110601	44.234364	29.162924	13.576755	-4.217957	52.505967	36.246840	1.326512	-7.486354	62.448695	43.171317
-1.395000	-160.147433	-5.066637	-73.570646	0.078886	-0.182327	-0.013248	100.350384	4.228934	-0.565887	14.809610	7.382706	-25.741255	-41.753206	31.677329	6.379653	42.249321	28.694047	25.038804	4.111067	44.245084	29.175475	13.561396	-4.218064	52.511784	36.247344	1.333576	-7.484646	62.421454	43.153954
-1.385000	-160.147433	-5.066637	-73.570646	0.078894	-0.182308	-0.013237	100.371025	4.248205	-0.549557	14.758234	7.422895	-25.725703	-41.713216	31.655373	6.373068	42.282097	28.717168	25.019810	4.109726	44.247303	29.183640	13.546738	-4.215996	52.506816	36.241879	1.340147	-7.485873	62.394826	43.136110
-1.375000	-160.147433	-5.066637	-73.570646	0.078903	-0.182288	-0.013227	100.392225	4.267121	-0.531198	14.710693	7.457732	-25.713876	-41.672697	31.623276	6.369099	42.315597	28.744850	25.003000	4.107903	44.243144	29.188510	13.532586	-4.212150	52.495509	36.234045	1.341904	-7.489037	62.373797	43.123809
-1.365000	-160.147433	-5.066637	-73.570646	0.078913	-0.182273	-0.013221	100.408193	4.280204	-0.514135	14.667078	7.481708	-25.712825	-41.639489	31.588276	6.368438	42.341410	28.771407	24.988884	4.106893	44.233858	29.189862	13.518400	-4.207730	52.483084	36.227529	1.334521	-7.492503	62.362413	43.121515
-1.355000	-160.147433	-5.066637	-73.570646	0.078922	-0.182267	-0.013222	100.415709	4.284461	-0.501308	14.626836	7.490969	-25.726508	-41.623087	31.559796	6.370104	42.351458	28.788652	24.978203	4.107500	44.219931	29.186212	13.504427	-4.204511	52.473968	36.224925	1.316407	-7.494822	62.362514	43.130359
-1.345000	-160.147433	-5.066637	-73.570646	0.078928	-0.182269	-0.013230	100.415692	4.280884	-0.494658	14.589107	7.487431	-25.753786	-41.630388	31.546635	6.371880	42.342691	28.789900	24.971979	4.109889	44.202065	29.176107	13.492346	-4.204221	52.470887	36.227156	1.290872	-7.495375	62.372864	43.147613
-1.335000	-160.147433	-5.066637	-73.570646	0.078932	-0.182278	-0.013241	100.412650	4.273821	-0.494758	14.552917	7.479519	-25.788635	-41.661691	31.553610	6.371637	42.319899	28.773883	24.971298	4.113629	44.182138	29.159719	13.484888	-4.207791	52.474572	36.233445	1.265799	-7.494357	62.389220	43.167714
-1.325000	-160.147433	-5.066637	-73.570646	0.078934	-0.182289	-0.013252	100.412308	4.268599	-0.500752	14.517087	7.477937	-25.822462	-41.709347	31.579584	6.368727	42.294063	28.745734	24.976946	4.117819	44.163135	29.139407	13.484555	-4.214853	52.483922	36.241670	1.250395	-7.492138	62.405586	43.184366
-1.315000	-160.147433	-5.066637	-73.570646	0.078933	-0.182296	-0.013260	100.418743	4.268842	-0.510679	14.480204	7.489250	-25.847485	-41.760217	31.618058	6.364513	42.276902	28.714361	24.988972	4.121387	44.148018	29.118880	13.492154	-4.223833	52.496650	36.249086	1.250718	-7.488617	62.416346	43.192834
-1.305000	-160.147433	-5.066637	-73.570646	0.078930	-0.182298	-0.013263	100.432503	4.275009	-0.522151	14.440979	7.512389	-25.859600	-41.800709	31.659808	6.361737	42.275272	28.688270	25.006211	4.123567	44.138566	29.101761	13.506024	-4.232620	52.510396	36.253401	1.266744	-7.483250	62.418470	43.191508
-1.295000	-160.147433	-5.066637	-73.570646	0.078925	-0.182295	-0.013263	100.450521	4.284687	-0.533048	14.398815	7.540843	-25.859457	-41.821527	31.695854	6.363179	42.289048	28.672669	25.025853	4.124408	44.135212	29.090687	13.522343	-4.239452	52.523922	36.253876	1.292534	-7.475762	62.412694	43.182256
-1.285000	-160.147433	-5.066637	-73.570646	0.078920	-0.182289	-0.013262	100.467534	4.294099	-0.541817	14.354043	7.568358	-25.851560	-41.819822	31.719447	6.370280	42.313285	28.669092	25.043409	4.124931	44.137648	29.087163	13.536196	-4.243589	52.537702	36.251829	1.318895	-7.466855	62.402963	43.169547
-1.275000	-160.147433	-5.066637	-73.570646	0.078913	-0.182284	-0.013263	100.478081	4.299816	-0.547312	14.307652	7.593235	-25.842318	-41.798641	31.726950	6.382298	42.342309	28.676693	25.053482	4.126725	44.145174	29.091615	13.542812	-4.245466	52.553428	36.250088	1.336645	-7.458245	62.394366	43.158759
